{
	"asset": {
		"generator": "Blocks 4.0.1RC0 SVR",
		"version": "1.1",
		"copyright": "Unknown"
	},
	"buffers": {
		"model": {
			"byteLength": 276908,
			"type": "arraybuffer",
			"uri": "model.bin"
		}
	},
	"accessors": {
		"accessor_position_m0-PolyPaper23_-1469822": {
			"bufferView": "vec3BufferView",
			"byteOffset": 0,
			"byteStride": 12,
			"componentType": 5126,
			"count": 6328,
			"max": [ 1.172291, 2.265256, 2.416849 ],
			"min": [ -1.157608, 0.9536961, -1.361971 ],
			"type": "VEC3"
		 },
		"accessor_normal_m0-PolyPaper23_-1469822": {
			"bufferView": "vec3BufferView",
			"byteOffset": 75936,
			"byteStride": 12,
			"componentType": 5126,
			"count": 6328,
			"max": [ 1, 1, 1 ],
			"min": [ -1, -1, -1 ],
			"type": "VEC3"
		 },
		"accessor_color_m0-PolyPaper23_-1469822": {
			"bufferView": "vec4BufferView",
			"byteOffset": 0,
			"byteStride": 16,
			"componentType": 5126,
			"count": 6328,
			"max": [ 1, 1, 1, 1 ],
			"min": [ 0, 0.1019608, 0, 1 ],
			"type": "VEC4"
		 },
		"accessor_indices_0_m0-PolyPaper23_-1469822": {
			"bufferView": "ushortBufferView",
			"byteOffset": 0,
			"byteStride": 0,
			"componentType": 5123,
			"count": 9474,
			"max": [ 6327 ],
			"min": [ 0 ],
			"type": "SCALAR"
		 },
		"accessor_position_m1-PolyGlass24_-1469828": {
			"bufferView": "vec3BufferView",
			"byteOffset": 151872,
			"byteStride": 12,
			"componentType": 5126,
			"count": 112,
			"max": [ -0.6423714, 1.773643, 0.2957799 ],
			"min": [ -1.068308, 1.369539, -0.1307118 ],
			"type": "VEC3"
		 },
		"accessor_normal_m1-PolyGlass24_-1469828": {
			"bufferView": "vec3BufferView",
			"byteOffset": 153216,
			"byteStride": 12,
			"componentType": 5126,
			"count": 112,
			"max": [ 0.9355, 0.9999949, 0.9378895 ],
			"min": [ -0.9381827, -0.9995613, -0.9361597 ],
			"type": "VEC3"
		 },
		"accessor_color_m1-PolyGlass24_-1469828": {
			"bufferView": "vec4BufferView",
			"byteOffset": 101248,
			"byteStride": 16,
			"componentType": 5126,
			"count": 112,
			"max": [ 1, 1, 1, 1 ],
			"min": [ 1, 1, 1, 1 ],
			"type": "VEC4"
		 },
		"accessor_indices_0_m1-PolyGlass24_-1469828": {
			"bufferView": "ushortBufferView",
			"byteOffset": 18948,
			"byteStride": 0,
			"componentType": 5123,
			"count": 180,
			"max": [ 111 ],
			"min": [ 0 ],
			"type": "SCALAR"
		 }
	},
	"bufferViews": {
		"ushortBufferView": {
			"buffer": "model",
			"byteLength": 19308,
			"byteOffset": 0,
			"target": 34963
		},
		"vec3BufferView": {
			"buffer": "model",
			"byteLength": 154560,
			"byteOffset": 19308,
			"target": 34962
		},
		"vec4BufferView": {
			"buffer": "model",
			"byteLength": 103040,
			"byteOffset": 173868,
			"target": 34962
		}
	},
	"meshes": {
		"mesh_m0-PolyPaper23_-1469822": {
			"name": "mesh_m0-PolyPaper23_-1469822",
			"primitives": [
				{
					"attributes": {
						"POSITION": "accessor_position_m0-PolyPaper23_-1469822",
						"NORMAL": "accessor_normal_m0-PolyPaper23_-1469822",
						"COLOR": "accessor_color_m0-PolyPaper23_-1469822"
					},
					"indices": "accessor_indices_0_m0-PolyPaper23_-1469822",
					"material": "material_mat23",
					"mode": 4
				}
			]
		},
		"mesh_m1-PolyGlass24_-1469828": {
			"name": "mesh_m1-PolyGlass24_-1469828",
			"primitives": [
				{
					"attributes": {
						"POSITION": "accessor_position_m1-PolyGlass24_-1469828",
						"NORMAL": "accessor_normal_m1-PolyGlass24_-1469828",
						"COLOR": "accessor_color_m1-PolyGlass24_-1469828"
					},
					"indices": "accessor_indices_0_m1-PolyGlass24_-1469828",
					"material": "material_mat24",
					"mode": 4
				}
			]
		}
	},
	"shaders": {
		"vertex_mat23": {
			"type": 35633,
			"uri": "https://vr.google.com/shaders/w/vs.glsl"
		},
		"fragment_mat23": {
			"type": 35632,
			"uri": "https://vr.google.com/shaders/w/fs.glsl"
		},
		"vertex_mat24": {
			"type": 35633,
			"uri": "https://vr.google.com/shaders/w/glassVS.glsl"
		},
		"fragment_mat24": {
			"type": 35632,
			"uri": "https://vr.google.com/shaders/w/glassFS.glsl"
		}
	},
	"programs": {
		"program_mat23": {
			"attributes": [
				"a_position",
				"a_normal",
				"a_color"				
			],
			"vertexShader": "vertex_mat23",
			"fragmentShader": "fragment_mat23"
		},
		"program_mat24": {
			"attributes": [
				"a_position",
				"a_normal",
				"a_color"				
			],
			"vertexShader": "vertex_mat24",
			"fragmentShader": "fragment_mat24"
		}
	},
	"techniques": {
		"technique_mat23": {
			"program": "program_mat23",
			"extras": {"gvrss" : "https://vr.google.com/shaders/w/gvrss/paper.json"},
			"parameters": {
				"position": {
					"type": 35665,
					"semantic": "POSITION"
				},
				"normal": {
					"type": 35665,
					"semantic": "NORMAL"
				},
				"color": {
					"type": 35666,
					"semantic": "COLOR"
				},
				"modelViewMatrix": {
					"type": 35676,
					"semantic": "MODELVIEW"
				},
				"projectionMatrix": {
					"type": 35676,
					"semantic": "PROJECTION"
				},
				"normalMatrix": {
					"type": 35675,
					"semantic": "MODELVIEWINVERSETRANSPOSE"
				},
				"color": {
					"type": 35666
				},
				"roughness": {
					"type": 5126
				},
				"metallic": {
					"type": 5126
				},
				"light0Pos": {
					"type": 35666
				},
				"light0Color": {
					"type": 35666
				},
				"light1Pos": {
					"type": 35666
				},
				"light1Color": {
					"type": 35666
				}				
			},
			"attributes": {
				"a_position": "position",
				"a_normal": "normal",
				"a_color": "color"				
			},
			"uniforms": {
				"u_modelViewMatrix": "modelViewMatrix",
				"u_projectionMatrix": "projectionMatrix",
				"u_normalMatrix": "normalMatrix",
				"u_color": "color",
				"u_roughness": "roughness",
				"u_metallic": "metallic",
				"u_light0Pos": "light0Pos",
				"u_light0Color": "light0Color",
				"u_light1Pos": "light1Pos",
				"u_light1Color": "light1Color"				
			},
			"states": {
				"enable": [
					2929,
					2884
				],
				"functions": {
					"cullFace": [1029]
				}
			}
		},
		"technique_mat24": {
			"program": "program_mat24",
			"extras": {"gvrss" : "https://vr.google.com/shaders/w/gvrss/glass.json"},
			"parameters": {
				"position": {
					"type": 35665,
					"semantic": "POSITION"
				},
				"normal": {
					"type": 35665,
					"semantic": "NORMAL"
				},
				"color": {
					"type": 35666,
					"semantic": "COLOR"
				},
				"modelViewMatrix": {
					"type": 35676,
					"semantic": "MODELVIEW"
				},
				"projectionMatrix": {
					"type": 35676,
					"semantic": "PROJECTION"
				},
				"normalMatrix": {
					"type": 35675,
					"semantic": "MODELVIEWINVERSETRANSPOSE"
				},
				"color": {
					"type": 35666
				},
				"roughness": {
					"type": 5126
				},
				"metallic": {
					"type": 5126
				},
				"light0Pos": {
					"type": 35666
				},
				"light0Color": {
					"type": 35666
				},
				"light1Pos": {
					"type": 35666
				},
				"light1Color": {
					"type": 35666
				}				
			},
			"attributes": {
				"a_position": "position",
				"a_normal": "normal",
				"a_color": "color"				
			},
			"uniforms": {
				"u_modelViewMatrix": "modelViewMatrix",
				"u_projectionMatrix": "projectionMatrix",
				"u_normalMatrix": "normalMatrix",
				"u_color": "color",
				"u_roughness": "roughness",
				"u_metallic": "metallic",
				"u_light0Pos": "light0Pos",
				"u_light0Color": "light0Color",
				"u_light1Pos": "light1Pos",
				"u_light1Color": "light1Color"				
			},
			"states": {
				"enable": [
					2929,
					3042
				],
				"functions": {
					"blendFuncSeparate": [775, 774, 773, 772],
					"depthMask": [true]
				}
			}
		}
	},
	"materials": {
		"material_mat23": {
			"technique": "technique_mat23",
			"values": {
				"color": [0.1019608, 0.1019608, 0.1019608, 1],
				"roughness": 1,
				"metallic": 0,
				"light0Pos": [-0.02, 4.11, -0.54, 0],
				"light0Color": [1.28, 1.232075, 1.101177, 0],
				"light1Pos": [0.02, -4.11, 0.54, 0],
				"light1Color": [0.2941177, 0.2953672, 0.32, 0]				
			},
			"name": "material_mat23"
		},
		"material_mat24": {
			"technique": "technique_mat24",
			"values": {
				"color": [0.8392157, 0.8392157, 0.8392157, 0.2509804],
				"roughness": 0,
				"metallic": 0,
				"light0Pos": [-0.02, 4.11, -0.54, 0],
				"light0Color": [1.28, 1.232075, 1.101177, 0],
				"light1Pos": [0.02, -4.11, 0.54, 0],
				"light1Color": [0.2941177, 0.2953672, 0.32, 0]				
			},
			"name": "material_mat24"
		}
	},
	"nodes": {
		"node_MeshObject-1104482304-PolyPaper23": {
			"name": "node_MeshObject-1104482304-PolyPaper23",
			"meshes": [
				"mesh_m0-PolyPaper23_-1469822"
			],
			"matrix": [1, 0, 0, 0, 0, 1, 0, 0, 0, 0, 1, 0, 0, 0, 0, 1]
		},
		"node_MeshObject1474247680-PolyGlass24": {
			"name": "node_MeshObject1474247680-PolyGlass24",
			"meshes": [
				"mesh_m1-PolyGlass24_-1469828"
			],
			"matrix": [1, 0, 0, 0, 0, 1, 0, 0, 0, 0, 1, 0, 0, 0, 0, 1]
		}
	},
	"scene": "defaultScene",
	"scenes": {
		"defaultScene": {
			"nodes": [
				"node_MeshObject-1104482304-PolyPaper23",
				"node_MeshObject1474247680-PolyGlass24"
			],
			"extras": {

			}
		}
	}
}